<svg xmlns="http://www.w3.org/2000/svg" xmlns:xlink="http://www.w3.org/1999/xlink" fill="none" version="1.1" width="100" height="100" viewBox="0 0 100 100"><g style="mix-blend-mode:passthrough"><g style="opacity:0;mix-blend-mode:passthrough"><rect x="0" y="0" width="100" height="100" rx="0" fill="#D8D8D8" fill-opacity="1"/></g><g style="mix-blend-mode:passthrough"><path d="M59.59162949104309,82.29682949104308C74.84062949104309,78.88432949104309,86.2261294910431,65.69282949104308,86.2261294910431,49.970929491043094C86.2261294910431,31.66652949104309,70.78402949104309,16.791929491043092,51.78282949104309,16.791929491043092C32.78742949104309,16.791929491043092,17.345229491043092,31.66652949104309,17.345229491043092,49.970929491043094C17.345229491043092,63.80092949104309,26.18442949104309,75.68662949104309,38.699729491043094,80.67182949104308L33.706429491043096,93.05672949104309C16.02812949104309,86.14462949104309,3.571429491043091,69.49422949104309,3.571429491043091,50.02902949104309C3.571429491043091,24.42362949104309,25.212729491043092,3.571429491043091,51.78282949104309,3.571429491043091C78.41722949104309,3.571429491043091,100.0000294910431,24.36562949104309,100.0000294910431,49.970929491043094C100.0000294910431,75.5763294910431,78.35872949104309,96.4285294910431,51.78282949104309,96.4285294910431C49.716429491043094,96.4285294910431,47.70862949104309,96.26022949104309,45.70072949104309,96.03972949104309L45.70072949104309,82.60442949104309C45.71832949104309,82.60442949104309,45.74172949104309,82.60442949104309,45.75932949104309,82.6160294910431L45.75932949104309,45.43842949104309L38.86942949104309,47.48122949104309L38.86942949104309,34.765629491043086L59.59162949104309,28.17852949104309L59.59162949104309,82.29102949104309L59.59162949104309,82.29682949104308Z" fill-rule="evenodd" fill="#1C6CDC" fill-opacity="1"/></g></g></svg>